<?xml version="1.0" encoding="UTF-8" standalone="no"?>
<!-- Created with Inkscape (http://www.inkscape.org/) -->

<svg
   version="1.1"
   id="svg1"
   width="533.33331"
   height="533.33331"
   viewBox="0 0 533.33331 533.33331"
   xmlns="http://www.w3.org/2000/svg"
   xmlns:svg="http://www.w3.org/2000/svg">
  <defs
     id="defs1">
    <clipPath
       clipPathUnits="userSpaceOnUse"
       id="clipPath2">
      <path
         d="M 0,400 H 400 V 0 H 0 Z"
         transform="translate(-214.36231,-138.8956)"
         id="path2" />
    </clipPath>
    <clipPath
       clipPathUnits="userSpaceOnUse"
       id="clipPath4">
      <path
         d="M 0,400 H 400 V 0 H 0 Z"
         transform="translate(-262.1524,-225.0893)"
         id="path4" />
    </clipPath>
  </defs>
  <g
     id="layer-MC0" />
  <g
     id="layer-MC1" />
  <g
     id="layer-MC2">
    <path
       id="path1"
       d="m 0,0 c 0,0 -14.362,18.014 -39.57,23.354 0,0 15.626,12.049 34.722,10.558 0,0 9.095,-15.825 4.848,-33.912 m -14.385,199.936 c -76.641,0 -138.809,-62.167 -138.809,-138.855 0,-35.947 13.721,-68.746 36.136,-93.416 -16.212,34.772 -7.707,74.714 13.392,99.149 -4.935,1.974 -10.103,4.511 -15.554,7.706 0,0 35.759,24.623 76.171,17.95 0,0 -15.319,8.365 -38.344,5.31 0,0 8.975,6.86 21.286,12.077 0,0 -9.445,25.421 -42.056,39.612 0,0 51.079,17.151 97.363,-26.831 0,0 45.815,-6.156 74.433,-37.874 24.716,-27.395 20.628,-51.125 20.628,-51.125 0,0 -38.72,-22.837 -86.603,0.799 0,0 51.126,-11.325 78.803,1.926 0,0 -22.884,20.253 -59.396,35.336 -0.047,0 -0.047,0 -0.094,0.047 -22.602,7.425 -42.855,8.506 -60.241,5.076 -13.674,-2.679 -25.562,-8.224 -35.43,-15.601 -20.863,-15.601 -32.564,-39.66 -32.564,-63.39 0,-51.406 48.306,-73.633 85.944,-75.419 1.692,-0.093 3.337,-0.14 4.935,-0.14 76.687,0 138.854,62.167 138.854,138.808 0,76.688 -62.167,138.855 -138.854,138.855"
       style="fill:#000000;fill-opacity:1;fill-rule:nonzero;stroke:none"
       transform="matrix(1.3333333,0,0,-1.3333333,285.8164,348.1392)"
       clip-path="url(#clipPath2)" />
    <path
       id="path3"
       d="M 0,0 C -12.969,10.103 -29.886,13.439 -32.376,10.056 -36.136,4.887 -17.903,-11.043 -1.739,-14.708 11.043,-17.574 16.541,-12.781 0,0"
       style="fill:#000000;fill-opacity:1;fill-rule:nonzero;stroke:none"
       transform="matrix(1.3333333,0,0,-1.3333333,349.53653,233.21427)"
       clip-path="url(#clipPath4)" />
  </g>
</svg>
